<mxfile host="app.diagrams.net" modified="2023-11-26T08:52:28.814Z" agent="Mozilla/5.0 (Windows NT 10.0; Win64; x64) AppleWebKit/537.36 (KHTML, like Gecko) Chrome/119.0.0.0 Safari/537.36" version="22.1.4" etag="ffSeBZHZEPBohWZgIg-9" type="github">
  <diagram name="第 1 页" id="DSTS0VgO18Kj4LBstawX">
    <mxGraphModel>
      <root>
        <mxCell id="0" />
        <mxCell id="1" parent="0" />
      </root>
    </mxGraphModel>
  </diagram>
</mxfile>
